<svg xmlns="http://www.w3.org/2000/svg" width="291" height="291" viewBox="0 0 291 291"><g transform="translate(-1301 -405)"><g transform="translate(1301 405)" fill="#161922"><path d="M 264 289.5 L 27 289.5 C 23.55684661865234 289.5 20.21750068664551 288.8259887695312 17.07469177246094 287.4967041015625 C 14.03834629058838 286.2124328613281 11.31115341186523 284.3735656738281 8.968769073486328 282.0312194824219 C 6.626422882080078 279.6888427734375 4.787577152252197 276.9616394042969 3.503307580947876 273.92529296875 C 2.174000024795532 270.7825012207031 1.5 267.4431457519531 1.5 264 L 1.5 27 C 1.5 23.55684661865234 2.174000024795532 20.21750068664551 3.503307580947876 17.07469177246094 C 4.787577152252197 14.03834629058838 6.626422882080078 11.31115341186523 8.968769073486328 8.968769073486328 C 11.31115341186523 6.626422882080078 14.03834629058838 4.787577152252197 17.07469177246094 3.503307580947876 C 20.21750068664551 2.174000024795532 23.55684661865234 1.5 27 1.5 L 264 1.5 C 267.4431457519531 1.5 270.7825012207031 2.174000024795532 273.92529296875 3.503307580947876 C 276.9616394042969 4.787577152252197 279.6888427734375 6.626422882080078 282.0312194824219 8.968769073486328 C 284.3735656738281 11.31115341186523 286.2124328613281 14.03834629058838 287.4967041015625 17.07469177246094 C 288.8259887695312 20.21750068664551 289.5 23.55684661865234 289.5 27 L 289.5 264 C 289.5 267.4431457519531 288.8259887695312 270.7825012207031 287.4967041015625 273.92529296875 C 286.2124328613281 276.9616394042969 284.3735656738281 279.6888427734375 282.0312194824219 282.0312194824219 C 279.6888427734375 284.3735656738281 276.9616394042969 286.2124328613281 273.92529296875 287.4967041015625 C 270.7825012207031 288.8259887695312 267.4431457519531 289.5 264 289.5 Z" stroke="none"/><path d="M 27 3 C 23.75869750976562 3 20.615966796875 3.6341552734375 17.65902709960938 4.884796142578125 C 14.801513671875 6.093475341796875 12.23452758789062 7.8243408203125 10.0294189453125 10.0294189453125 C 7.8243408203125 12.23452758789062 6.093475341796875 14.801513671875 4.884796142578125 17.65902709960938 C 3.6341552734375 20.615966796875 3 23.75869750976562 3 27 L 3 264 C 3 267.2413024902344 3.6341552734375 270.384033203125 4.884796142578125 273.3409729003906 C 6.093475341796875 276.198486328125 7.8243408203125 278.7654724121094 10.0294189453125 280.9705810546875 C 12.23452758789062 283.1756591796875 14.801513671875 284.9065246582031 17.65902709960938 286.1152038574219 C 20.615966796875 287.3658447265625 23.75869750976562 288 27 288 L 264 288 C 267.2413024902344 288 270.384033203125 287.3658447265625 273.3409729003906 286.1152038574219 C 276.198486328125 284.9065246582031 278.7654724121094 283.1756591796875 280.9705810546875 280.9705810546875 C 283.1756591796875 278.7654724121094 284.9065246582031 276.198486328125 286.1152038574219 273.3409729003906 C 287.3658447265625 270.384033203125 288 267.2413024902344 288 264 L 288 27 C 288 23.75869750976562 287.3658447265625 20.615966796875 286.1152038574219 17.65902709960938 C 284.9065246582031 14.801513671875 283.1756591796875 12.23452758789062 280.9705810546875 10.0294189453125 C 278.7654724121094 7.8243408203125 276.198486328125 6.093475341796875 273.3409729003906 4.884796142578125 C 270.384033203125 3.6341552734375 267.2413024902344 3 264 3 L 27 3 M 27 0 L 264 0 C 278.9116821289062 0 291 12.08831787109375 291 27 L 291 264 C 291 278.9116821289062 278.9116821289062 291 264 291 L 27 291 C 12.08831787109375 291 0 278.9116821289062 0 264 L 0 27 C 0 12.08831787109375 12.08831787109375 0 27 0 Z" stroke="none" fill="#64c1d6"/></g><path d="M181.22-180.96V0H146.9L61.1-119.6V0H26.78V-180.96H61.1L146.9-61.62V-180.96Z" transform="translate(1324 629)" fill="#376ce2"/><path d="M181.22-180.96V0H146.9L61.1-119.6V0H26.78V-180.96H61.1L146.9-61.62V-180.96Z" transform="translate(1341 641)" fill="#2fa5d5"/><path d="M181.22-180.96V0H146.9L61.1-119.6V0H26.78V-180.96H61.1L146.9-61.62V-180.96Z" transform="translate(1361 654)" fill="#28e0c8"/></g></svg>