<svg xmlns="http://www.w3.org/2000/svg" width="38" height="38" viewBox="0 0 38 38"><g transform="translate(-4730 -1190)"><rect width="38" height="38" transform="translate(4730 1190)" fill="rgba(255,255,255,0)"/><path d="M3.7-23.375A8.923,8.923,0,0,0,8.875-31.45,8.877,8.877,0,0,0,0-40.325,8.877,8.877,0,0,0-8.875-31.45,8.923,8.923,0,0,0-3.7-23.375a14.175,14.175,0,0,0-10.5,13.7h1.3A12.867,12.867,0,0,1,0-22.575a12.867,12.867,0,0,1,12.9,12.9h1.3A14.175,14.175,0,0,0,3.7-23.375ZM-7.575-31.45A7.554,7.554,0,0,1,0-39.025,7.554,7.554,0,0,1,7.575-31.45,7.586,7.586,0,0,1,0-23.875,7.586,7.586,0,0,1-7.575-31.45Z" transform="translate(4749.5 1233.5)"/></g></svg>